<svg version="1.1" id="Layer_1" xmlns="http://www.w3.org/2000/svg" xmlns:xlink="http://www.w3.org/1999/xlink" x="0px" y="0px"
	 width="100%" viewBox="0 0 512 512" enable-background="new 0 0 512 512" xml:space="preserve">
<path fill="#25D366" opacity="1.000000" stroke="none" 
	d="
M225.000000,0.999998 
	C246.020889,1.000000 267.041779,1.000000 288.360840,1.404188 
	C289.501434,2.201908 290.309174,2.814595 291.191803,2.954322 
	C298.294037,4.078661 305.539520,4.581987 312.499054,6.272390 
	C337.003998,12.224423 360.543274,20.701065 382.635406,33.153076 
	C410.552277,48.888176 434.518188,69.324722 455.002319,93.729240 
	C470.189301,111.822823 482.605499,131.840393 491.933868,153.658859 
	C501.408325,175.818970 508.448730,198.641754 511.081879,222.703384 
	C511.172211,223.529007 512.336365,224.237106 513.000000,225.000000 
	C513.000000,246.020889 513.000000,267.041779 512.596741,288.358765 
	C511.762634,291.162628 511.444214,293.695892 510.881775,296.173798 
	C508.283844,307.619659 506.608612,319.397827 502.745605,330.405090 
	C496.866241,347.157898 490.495056,363.906952 482.406128,379.668854 
	C473.979797,396.088287 463.686127,411.674896 450.517303,424.919373 
	C438.750763,436.753540 427.353760,449.135559 414.435364,459.598785 
	C397.946808,472.953674 379.628571,483.765381 359.917999,492.089691 
	C337.844513,501.411957 315.207306,508.428162 291.313568,511.081512 
	C290.481628,511.173859 289.768524,512.336304 289.000000,513.000000 
	C267.979095,513.000000 246.958206,513.000000 225.642365,512.597534 
	C220.308899,511.135345 215.305603,509.850830 210.225739,509.054932 
	C188.443893,505.642334 167.773346,498.637146 147.908569,489.338348 
	C126.603447,479.365295 106.595779,467.135651 89.499619,450.837830 
	C77.310890,439.218201 64.991364,427.510742 54.428436,414.467224 
	C40.964039,397.840851 30.083733,379.358093 21.717657,359.469086 
	C12.490605,337.533173 5.575322,315.038574 2.918321,291.318451 
	C2.824902,290.484467 1.663588,289.770111 0.999997,289.000000 
	C1.000000,267.645782 1.000000,246.291550 1.398409,224.647858 
	C2.188272,223.683212 2.781033,223.052444 2.941371,222.326218 
	C5.958004,208.662750 8.395301,194.846008 12.023542,181.348907 
	C17.440742,161.196869 26.398190,142.478241 37.095089,124.580330 
	C52.211220,99.288216 71.447983,77.443474 94.012962,58.728176 
	C114.122185,42.049664 136.387527,28.601189 160.842697,19.028631 
	C180.821426,11.208291 201.274826,5.256325 222.685547,2.917976 
	C223.516937,2.827178 224.231171,1.663663 225.000000,0.999998 
M110.064407,347.573151 
	C102.818840,374.132019 95.573265,400.690887 88.163902,427.850098 
	C90.717857,427.231476 92.465744,426.836792 94.198471,426.384064 
	C120.269119,419.572296 146.353226,412.810852 172.388351,405.865784 
	C175.847061,404.943115 178.602600,405.267059 181.831741,406.889282 
	C216.691101,424.401306 253.426773,429.531036 291.566284,421.605194 
	C379.013275,403.432678 436.270538,321.642914 424.199036,232.829865 
	C411.575104,139.952606 322.595917,74.875801 230.027893,90.818687 
	C116.444893,110.380959 55.259098,234.243118 109.183517,335.641693 
	C111.213173,339.458252 112.255722,342.845276 110.064407,347.573151 
z"/>
<path fill="#000000" opacity="1.000000" stroke="none" 
	d="
M513.000000,224.531342 
	C512.336365,224.237106 511.172211,223.529007 511.081879,222.703384 
	C508.448730,198.641754 501.408325,175.818970 491.933868,153.658859 
	C482.605499,131.840393 470.189301,111.822823 455.002319,93.729240 
	C434.518188,69.324722 410.552277,48.888176 382.635406,33.153076 
	C360.543274,20.701065 337.003998,12.224423 312.499054,6.272390 
	C305.539520,4.581987 298.294037,4.078661 291.191803,2.954322 
	C290.309174,2.814595 289.501434,2.201908 288.829498,1.404188 
	C363.593719,1.000000 438.187408,1.000000 513.000000,1.000000 
	C513.000000,75.354088 513.000000,149.708389 513.000000,224.531342 
z"/>
<path fill="#000000" opacity="1.000000" stroke="none" 
	d="
M0.999997,289.468658 
	C1.663588,289.770111 2.824902,290.484467 2.918321,291.318451 
	C5.575322,315.038574 12.490605,337.533173 21.717657,359.469086 
	C30.083733,379.358093 40.964039,397.840851 54.428436,414.467224 
	C64.991364,427.510742 77.310890,439.218201 89.499619,450.837830 
	C106.595779,467.135651 126.603447,479.365295 147.908569,489.338348 
	C167.773346,498.637146 188.443893,505.642334 210.225739,509.054932 
	C215.305603,509.850830 220.308899,511.135345 225.173706,512.597534 
	C150.406296,513.000000 75.812599,513.000000 1.000000,513.000000 
	C1.000000,438.645905 1.000000,364.291626 0.999997,289.468658 
z"/>
<path fill="#000000" opacity="1.000000" stroke="none" 
	d="
M289.468658,513.000000 
	C289.768524,512.336304 290.481628,511.173859 291.313568,511.081512 
	C315.207306,508.428162 337.844513,501.411957 359.917999,492.089691 
	C379.628571,483.765381 397.946808,472.953674 414.435364,459.598785 
	C427.353760,449.135559 438.750763,436.753540 450.517303,424.919373 
	C463.686127,411.674896 473.979797,396.088287 482.406128,379.668854 
	C490.495056,363.906952 496.866241,347.157898 502.745605,330.405090 
	C506.608612,319.397827 508.283844,307.619659 510.881775,296.173798 
	C511.444214,293.695892 511.762634,291.162628 512.596741,288.827423 
	C513.000000,363.593719 513.000000,438.187408 513.000000,513.000000 
	C438.645905,513.000000 364.291626,513.000000 289.468658,513.000000 
z"/>
<path fill="#000000" opacity="1.000000" stroke="none" 
	d="
M224.531342,0.999998 
	C224.231171,1.663663 223.516937,2.827178 222.685547,2.917976 
	C201.274826,5.256325 180.821426,11.208291 160.842697,19.028631 
	C136.387527,28.601189 114.122185,42.049664 94.012962,58.728176 
	C71.447983,77.443474 52.211220,99.288216 37.095089,124.580330 
	C26.398190,142.478241 17.440742,161.196869 12.023542,181.348907 
	C8.395301,194.846008 5.958004,208.662750 2.941371,222.326218 
	C2.781033,223.052444 2.188272,223.683212 1.398409,224.179199 
	C1.000000,149.739456 1.000000,75.478920 1.000000,1.000000 
	C75.354088,1.000000 149.708389,1.000000 224.531342,0.999998 
z"/>
<path fill="#FDFFFE" opacity="1.000000" stroke="none" 
	d="
M110.157127,347.184509 
	C112.255722,342.845276 111.213173,339.458252 109.183517,335.641693 
	C55.259098,234.243118 116.444893,110.380959 230.027893,90.818687 
	C322.595917,74.875801 411.575104,139.952606 424.199036,232.829865 
	C436.270538,321.642914 379.013275,403.432678 291.566284,421.605194 
	C253.426773,429.531036 216.691101,424.401306 181.831741,406.889282 
	C178.602600,405.267059 175.847061,404.943115 172.388351,405.865784 
	C146.353226,412.810852 120.269119,419.572296 94.198471,426.384064 
	C92.465744,426.836792 90.717857,427.231476 88.163902,427.850098 
	C95.573265,400.690887 102.818840,374.132019 110.157127,347.184509 
M118.017639,250.672272 
	C116.950424,280.509369 124.466164,307.978882 140.482193,333.196320 
	C141.638519,335.016968 142.046646,337.981812 141.517334,340.092316 
	C138.685989,351.381805 135.429855,362.564362 132.355896,373.793549 
	C131.142883,378.224701 130.021317,382.680847 128.687469,387.777740 
	C130.835907,387.314117 132.252258,387.063660 133.639160,386.700714 
	C147.797714,382.995270 161.994156,379.422943 176.078796,375.454224 
	C179.955460,374.361847 182.884598,374.897400 186.293121,376.909698 
	C215.668472,394.251953 247.374237,400.466614 280.944244,394.674377 
	C356.066040,381.712708 406.108459,313.126221 396.180756,237.441879 
	C386.162659,161.068329 313.178162,106.291534 237.444092,118.305771 
	C170.759720,128.884399 121.955360,182.596848 118.017639,250.672272 
z"/>
<path fill="#26D367" opacity="1.000000" stroke="none" 
	d="
M118.028778,250.195145 
	C121.955360,182.596848 170.759720,128.884399 237.444092,118.305771 
	C313.178162,106.291534 386.162659,161.068329 396.180756,237.441879 
	C406.108459,313.126221 356.066040,381.712708 280.944244,394.674377 
	C247.374237,400.466614 215.668472,394.251953 186.293121,376.909698 
	C182.884598,374.897400 179.955460,374.361847 176.078796,375.454224 
	C161.994156,379.422943 147.797714,382.995270 133.639160,386.700714 
	C132.252258,387.063660 130.835907,387.314117 128.687469,387.777740 
	C130.021317,382.680847 131.142883,378.224701 132.355896,373.793549 
	C135.429855,362.564362 138.685989,351.381805 141.517334,340.092316 
	C142.046646,337.981812 141.638519,335.016968 140.482193,333.196320 
	C124.466164,307.978882 116.950424,280.509369 118.028778,250.195145 
M293.535126,284.019073 
	C290.245544,287.998688 286.895325,291.930206 283.685608,295.973236 
	C281.128143,299.194641 278.248169,299.708130 274.437805,298.181183 
	C249.890167,288.343811 231.143936,271.845795 217.489716,249.310013 
	C215.114532,245.389847 215.530243,242.450455 218.545898,239.041336 
	C222.158966,234.956848 225.519119,230.547089 228.284195,225.862320 
	C229.445465,223.894806 229.663864,220.527405 228.830551,218.367584 
	C224.522522,207.201981 219.844162,196.173340 215.020981,185.217560 
	C214.083038,183.087036 212.281540,180.806427 210.272720,179.777023 
	C204.252274,176.692001 191.832962,179.325287 186.985092,184.213669 
	C171.193451,200.137253 166.952042,221.190918 178.013962,242.635086 
	C199.995529,285.247528 231.959671,317.400299 278.599426,332.955078 
	C288.688721,336.319946 298.842194,338.905731 309.441467,336.936401 
	C328.135803,333.463104 342.981659,322.626099 343.094727,301.775848 
	C343.115387,297.970734 342.000549,295.523834 338.475128,293.875885 
	C328.531616,289.227936 318.737152,284.260040 308.778473,279.645966 
	C300.200867,275.671783 299.528992,275.967621 293.535126,284.019073 
z"/>
<path fill="#FDFFFE" opacity="1.000000" stroke="none" 
	d="
M293.752869,283.734314 
	C299.528992,275.967621 300.200867,275.671783 308.778473,279.645966 
	C318.737152,284.260040 328.531616,289.227936 338.475128,293.875885 
	C342.000549,295.523834 343.115387,297.970734 343.094727,301.775848 
	C342.981659,322.626099 328.135803,333.463104 309.441467,336.936401 
	C298.842194,338.905731 288.688721,336.319946 278.599426,332.955078 
	C231.959671,317.400299 199.995529,285.247528 178.013962,242.635086 
	C166.952042,221.190918 171.193451,200.137253 186.985092,184.213669 
	C191.832962,179.325287 204.252274,176.692001 210.272720,179.777023 
	C212.281540,180.806427 214.083038,183.087036 215.020981,185.217560 
	C219.844162,196.173340 224.522522,207.201981 228.830551,218.367584 
	C229.663864,220.527405 229.445465,223.894806 228.284195,225.862320 
	C225.519119,230.547089 222.158966,234.956848 218.545898,239.041336 
	C215.530243,242.450455 215.114532,245.389847 217.489716,249.310013 
	C231.143936,271.845795 249.890167,288.343811 274.437805,298.181183 
	C278.248169,299.708130 281.128143,299.194641 283.685608,295.973236 
	C286.895325,291.930206 290.245544,287.998688 293.752869,283.734314 
z"/>
</svg>